<svg width="89" height="65" viewBox="0 0 89 65" fill="none" xmlns="http://www.w3.org/2000/svg">
<path d="M76.6455 0.606324C76.1425 0.615503 75.6367 0.683984 75.1323 0.817824C73.5773 1.23091 72.3233 2.19698 71.3797 3.4781C50.7755 10.1901 31.2391 16.38 10.8202 22.9563C3.52893 25.3045 -1.03998 32.3495 1.0886 38.8893C3.21774 45.4289 11.0655 48.487 18.3528 46.1003L18.3525 46.1007C38.4395 39.5231 57.7194 33.4261 78.0425 26.8865C78.1453 26.9254 78.2499 26.9581 78.3535 26.993C77.8725 27.5318 77.5776 28.2407 77.5776 29.0198C77.5776 30.7023 78.9417 32.0662 80.6242 32.0662C82.3068 32.0662 83.6711 30.7021 83.6711 29.0198C83.6711 28.2267 83.3656 27.507 82.8693 26.9651C85.2102 26.0719 86.7896 23.8686 87.5574 21.2924C88.3922 18.4913 88.3843 15.1137 87.4502 11.6574C86.5161 8.20068 84.8198 5.27383 82.6878 3.26494C81.0883 1.75837 79.1512 0.733186 77.1478 0.615686C76.9807 0.606139 76.8133 0.602836 76.6455 0.605773V0.606324ZM76.7368 4.03586C76.8211 4.03462 76.9054 4.03676 76.9896 4.04228C78.0116 4.10801 79.1593 4.65548 80.3346 5.76255C81.9016 7.23865 83.3529 9.64832 84.138 12.553C84.8029 15.0131 84.8723 17.3993 84.5074 19.3188H74.8167C74.171 18.1792 73.6212 16.8674 73.2338 15.4343C72.4487 12.5295 72.491 9.72561 73.1023 7.6745C73.7137 5.62339 74.7771 4.46216 76.0132 4.13389C76.2494 4.07142 76.4923 4.03836 76.7366 4.03549L76.7368 4.03586ZM69.6842 7.16484C68.9838 9.86991 69.0387 13.0643 69.921 16.3298C70.1959 17.35 70.5475 18.3479 70.9726 19.3151H43.2096C31.3852 23.1232 20.1032 26.7519 13.2196 28.9703C8.95284 30.3447 6.72897 34.002 7.63721 36.7901C8.54526 39.5785 12.5175 41.2575 16.771 39.8653C29.0516 35.8464 53.308 28.0437 72.3672 21.9093C73.0575 22.9754 73.8356 23.9227 74.6842 24.7225C74.6963 24.7335 74.709 24.7441 74.7209 24.7555C55.4663 30.9524 30.3536 39.0281 17.838 43.1241C12.1784 44.9765 6.0102 42.8792 4.37254 37.8513C2.73489 32.8235 6.50278 27.5296 12.1639 25.7056C24.6584 21.6794 50.3881 13.4056 69.6842 7.16484ZM80.6227 40.2494C77.5111 51.8626 73.1859 50.2501 73.1859 57.0482C73.1859 61.1533 76.5174 64.4852 80.6227 64.4852C84.7279 64.4852 88.0595 61.1535 88.0595 57.0482C88.0595 49.7099 83.7899 52.0691 80.6227 40.2494Z" fill="#004E89"/>
</svg>
