<svg width="93" height="77" viewBox="0 0 93 77" fill="none" xmlns="http://www.w3.org/2000/svg">
<g clip-path="url(#clip0_103_418)">
<path d="M9.56641 58.6939L9.80103 16.977H5.10864V70.0574C11.5569 68.3863 18.0278 67.3229 24.5442 67.2773C30.561 67.2393 36.5779 68.0825 42.6099 70.1334C38.8635 67.0874 34.6858 64.8466 30.228 63.3882C24.6123 61.55 18.5425 60.9423 12.3213 61.474C10.9136 61.5879 9.6875 60.5397 9.56641 59.1344C9.55127 58.9825 9.55127 58.8382 9.56641 58.6939ZM78.4233 14.797C78.4082 14.6754 78.3931 14.5463 78.3931 14.4096C78.3931 14.2805 78.4006 14.1513 78.4233 14.0222V5.57551C72.52 5.01342 66.4351 5.66667 61.1221 7.68718C56.1572 9.57857 51.8735 12.6853 49.0884 17.1365V65.2492C53.4175 62.3475 57.845 59.9624 62.3936 58.3369C67.5779 56.4835 72.906 55.6023 78.4233 56.0429V14.797ZM83.532 11.8498H90.4495C91.8572 11.8498 93 12.9967 93 14.4096V73.3996C93 74.8125 91.8572 75.9594 90.4495 75.9594C90.1619 75.9594 89.8818 75.9139 89.6245 75.8227C82.5103 73.7794 75.4414 72.4197 68.4407 72.3742C61.614 72.3286 54.7949 73.5363 47.9456 76.5671C47.5217 76.8482 47.0146 77.0001 46.4924 76.9925C45.9778 77.0001 45.4707 76.8482 45.0393 76.5671C38.1975 73.5287 31.3708 72.3286 24.5442 72.3742C17.5435 72.4197 10.4822 73.7794 3.36035 75.8227C3.10303 75.9139 2.823 75.9594 2.5354 75.9594C1.14282 75.967 0 74.8201 0 73.4072V14.4096C0 12.9967 1.14282 11.8498 2.55054 11.8498H9.82373L9.86914 3.29673C9.87671 2.06619 10.7395 1.04834 11.8975 0.805266C18.6106 -0.599982 26.7693 -0.250569 33.9214 2.49916C38.8635 4.39814 43.3516 7.42892 46.6287 11.8042C49.936 7.72516 54.356 4.79313 59.3284 2.90174C66.1248 0.31153 73.9656 -0.311336 81.3447 0.774883C82.6162 0.957185 83.5244 2.0586 83.5244 3.30433V11.8498H83.532ZM51.5632 69.746C57.2017 67.9685 62.8325 67.2393 68.4634 67.2697C74.9797 67.3077 81.4507 68.3787 87.8989 70.0498V16.977H83.532V58.9218C83.532 60.3346 82.3892 61.4816 80.9814 61.4816C80.7771 61.4816 80.5803 61.4588 80.3911 61.4132C74.8057 60.5321 69.3943 61.2613 64.1116 63.1527C59.8582 64.6795 55.6804 66.9583 51.5632 69.746ZM43.9873 64.7554V17.0606C41.3157 12.3283 36.9941 9.1608 32.1125 7.2846C26.5801 5.15774 20.3665 4.67919 14.9475 5.45398L14.6599 56.2024C20.5708 55.9897 26.353 56.7417 31.7947 58.5268C36.1238 59.9396 40.2258 62.0133 43.9873 64.7554Z" fill="#004E89"/>
</g>
<defs>
<clipPath id="clip0_103_418">
<rect width="93" height="77" fill="white"/>
</clipPath>
</defs>
</svg>
