<svg width="84" height="96" viewBox="0 0 84 96" fill="none" xmlns="http://www.w3.org/2000/svg">
<path fill-rule="evenodd" clip-rule="evenodd" d="M53.1583 28.7167C52.7647 24.9044 52.1953 21.1123 51.4521 17.3525C50.4771 12.6563 49.28 8.47463 47.7363 5.47922C46.2413 2.5163 44.3617 0.550049 41.9946 0.550049C39.6437 0.550049 37.7317 2.51088 36.2313 5.47922C34.7254 8.4638 33.4958 12.613 32.5479 17.358C31.8438 20.9005 31.2804 24.768 30.8579 28.7221C27.3535 27.1983 23.7981 25.7946 20.1979 24.5134L20.1817 24.5025C15.6208 22.9642 11.4175 21.9296 8.05917 21.74H8.04834C4.74417 21.5938 2.09001 22.2276 0.909172 24.2534L0.903756 24.2642C-0.271661 26.3225 0.492089 28.9496 2.29042 31.7284L2.29584 31.75L2.31209 31.7771C4.72334 35.1531 7.55567 38.2075 10.7404 40.8663C13.6572 43.3461 16.658 45.7254 19.7375 48C16.6608 50.275 13.6636 52.6548 10.7458 55.1392L10.7296 55.15C7.11126 58.3242 4.14292 61.4605 2.29584 64.2609L2.29042 64.2717C0.497506 67.0559 -0.271661 69.6776 0.909172 71.7359L1.68376 71.2917L0.914588 71.7413C2.09542 73.7725 4.77667 74.4063 8.05375 74.2546H8.11334C12.2463 73.8527 16.3111 72.9243 20.2088 71.4921C23.809 70.2091 27.3644 68.8036 30.8687 67.278C31.2985 71.0769 31.8546 74.8595 32.5371 78.6259L32.5479 78.6584C33.5229 83.3492 34.72 87.5309 36.2637 90.5209C37.7588 93.4892 39.6383 95.4501 42 95.4501C44.3617 95.4501 46.2683 93.4946 47.7687 90.5209C49.2746 87.5417 50.5042 83.3871 51.4521 78.6421C52.1562 75.0996 52.7142 71.2321 53.1421 67.278C56.6449 68.8019 60.1964 70.2048 63.7967 71.4867C67.6967 72.9221 71.7592 73.8484 75.8867 74.2546H75.9517C79.2558 74.4063 81.9046 73.7671 83.0854 71.7467L82.0833 71.1617L83.0908 71.7305C84.2717 69.6721 83.5025 67.0505 81.7096 64.2717L81.6933 64.2446L81.6771 64.223C79.2675 60.8473 76.437 57.7929 73.2542 55.1338C70.3391 52.6541 67.3401 50.2748 64.2625 48C67.3392 45.725 70.3382 43.3453 73.2596 40.8609L73.2758 40.8501C76.8942 37.6759 79.8625 34.5396 81.7042 31.7392L81.715 31.7284C83.5079 28.9496 84.2717 26.3225 83.0962 24.2642V24.2534C81.9046 22.2276 79.2287 21.5938 75.9517 21.74H75.9246L75.8921 21.7455C71.7588 22.1491 67.6941 23.0793 63.7967 24.5134C60.1964 25.7989 56.6485 27.2019 53.1529 28.7221M42 2.87922C41.0683 2.87922 39.7412 3.6863 38.3058 6.53005C36.9354 9.24921 35.7546 13.16 34.8229 17.813C34.0617 21.7527 33.4833 25.7256 33.0896 29.7188C36.1012 31.073 39.0714 32.5228 42 34.0684C44.9286 32.5264 47.9006 31.073 50.9158 29.708C50.526 25.719 49.944 21.7512 49.1717 17.8184C48.2129 13.1709 47.0592 9.2438 45.6617 6.53546V6.52463C44.2154 3.67005 42.9208 2.8738 41.9946 2.8738M51.1488 32.1563C48.899 33.1891 46.6746 34.2688 44.4754 35.3955C45.6888 36.0635 46.8967 36.746 48.0992 37.443C49.2908 38.1255 50.4735 38.8242 51.6471 39.5392C51.5305 37.0733 51.3644 34.6155 51.1488 32.1563ZM39.5192 35.3955C37.3206 34.2668 35.0975 33.1868 32.8512 32.1563C32.6346 34.6263 32.4613 37.1071 32.3475 39.5338C33.5175 38.8224 34.6983 38.1255 35.89 37.443C37.0925 36.7424 38.3022 36.0599 39.5192 35.3955ZM32.2337 42.3288C33.8226 41.3394 35.4278 40.3806 37.0492 39.4525C38.6814 38.5028 40.3299 37.582 41.9946 36.69C43.6557 37.582 45.3024 38.5028 46.9346 39.4525C48.5596 40.3842 50.1665 41.3412 51.7554 42.3234C51.8792 46.1032 51.8792 49.8861 51.7554 53.6659C50.1665 54.6517 48.5614 55.6087 46.94 56.5367C45.3114 57.4901 43.6629 58.4109 41.9946 59.2992C40.3302 58.409 38.6815 57.4898 37.0492 56.5421C35.4242 55.6105 33.8118 54.6481 32.2121 53.655C32.1579 51.77 32.1326 49.885 32.1362 48C32.1362 46.1855 32.1687 44.2788 32.2337 42.3288ZM29.9588 41.0126C30.0833 37.795 30.3 34.4584 30.6088 31.1488C26.9346 29.5332 23.2038 28.0499 19.4233 26.7017C14.9383 25.185 10.9733 24.2263 7.93459 24.0584C4.7225 23.9121 3.37375 24.6271 2.91334 25.418C2.4475 26.2413 2.50167 27.7796 4.21876 30.4446C6.50814 33.6557 9.2006 36.5593 12.23 39.0842H12.2408C15.3031 41.695 18.4574 44.1867 21.7038 46.5592C24.4001 44.6292 27.1529 42.7795 29.9588 41.0126ZM23.6917 48C25.7175 46.5592 27.7758 45.1671 29.8667 43.8238C29.7922 46.6038 29.7868 49.3852 29.8504 52.1655C27.7678 50.8241 25.7162 49.4352 23.6971 48M21.7092 49.43C18.4683 51.8059 15.3138 54.2974 12.2517 56.8996C8.70917 60.0088 5.91417 62.9825 4.235 65.5284C2.5125 68.2042 2.4475 69.7534 2.91875 70.5767C3.38459 71.3621 4.755 72.0771 7.91292 71.9363C11.8422 71.5497 15.7064 70.6651 19.4125 69.3038L19.4233 69.2984C23.2057 67.9485 26.9383 66.4634 30.6142 64.8459C30.2928 61.5634 30.0689 58.2701 29.9425 54.9659C27.1441 53.2021 24.3985 51.356 21.7092 49.43ZM33.095 66.2813C33.5283 70.2716 34.1043 74.242 34.8229 78.1925C35.7871 82.8346 36.9354 86.7563 38.3275 89.4592L38.3329 89.47C39.7738 92.3246 41.0737 93.1263 42 93.1263C42.9263 93.1263 44.2588 92.3138 45.6942 89.47C47.0646 86.7563 48.2454 82.8455 49.1771 78.1871C49.9383 74.2474 50.5167 70.2745 50.9104 66.2813C47.8981 64.9195 44.9267 63.469 42 61.9317C39.075 63.4737 36.1067 64.9253 33.095 66.2867M39.5246 60.6046C37.3218 61.7349 35.0974 62.8164 32.8512 63.8492C32.6201 61.3864 32.445 58.9201 32.3258 56.4501C33.5067 57.1687 34.6965 57.871 35.8954 58.5571C37.0979 59.2577 38.3076 59.9402 39.5246 60.6046ZM44.4754 60.6046C46.6782 61.7349 48.9008 62.8146 51.1433 63.8438C51.36 61.3738 51.5333 58.893 51.6471 56.4663C50.4771 57.1777 49.2981 57.8746 48.11 58.5571C46.9085 59.2542 45.6987 59.9367 44.4808 60.6046M54.0412 54.9875C53.9167 58.205 53.7 61.5417 53.3913 64.8513C57.0671 66.4688 60.7998 67.9539 64.5821 69.3038H64.5929C68.2971 70.6665 72.1594 71.5529 76.0871 71.9417C79.2829 72.0826 80.6208 71.3675 81.0867 70.5767C81.5525 69.7588 81.4929 68.2205 79.7812 65.55C77.4898 62.3405 74.7955 59.4387 71.7646 56.9159L71.7592 56.9105C68.6954 54.3063 65.539 51.813 62.2962 49.4355C59.6 51.3673 56.8471 53.2188 54.0412 54.9875ZM62.2962 46.57C59.6018 44.6383 56.8507 42.7868 54.0467 41.018C53.9159 37.7232 53.6991 34.4323 53.3967 31.1488C57.0708 29.5332 60.8017 28.0499 64.5821 26.7017L64.5983 26.6963C68.3025 25.3336 72.1648 24.4472 76.0925 24.0584C79.2558 23.923 80.6208 24.6325 81.0867 25.4234C81.5579 26.2467 81.4929 27.7905 79.7704 30.4663C78.0912 33.0121 75.3017 35.9913 71.7537 39.1005C68.6915 41.7005 65.539 44.1903 62.2962 46.57ZM60.3083 48C58.2825 49.4409 56.2242 50.833 54.1333 52.1763C54.2025 49.3944 54.2025 46.6111 54.1333 43.8292C56.2242 45.1725 58.2825 46.5628 60.3083 48Z" fill="#004E89"/>
<path d="M42 53.8771C43.5587 53.8771 45.0536 53.2579 46.1557 52.1558C47.2579 51.0536 47.8771 49.5587 47.8771 48C47.8771 46.4413 47.2579 44.9465 46.1557 43.8443C45.0536 42.7422 43.5587 42.123 42 42.123C40.4413 42.123 38.9464 42.7422 37.8443 43.8443C36.7421 44.9465 36.1229 46.4413 36.1229 48C36.1229 49.5587 36.7421 51.0536 37.8443 52.1558C38.9464 53.2579 40.4413 53.8771 42 53.8771ZM8.2 42.123C8.77902 42.123 9.35237 42.0089 9.88731 41.7873C10.4223 41.5658 10.9083 41.241 11.3178 40.8315C11.7272 40.4221 12.052 39.9361 12.2735 39.4011C12.4951 38.8662 12.6092 38.2928 12.6092 37.7138C12.6092 37.1348 12.4951 36.5614 12.2735 36.0265C12.052 35.4915 11.7272 35.0055 11.3178 34.596C10.9083 34.1866 10.4223 33.8618 9.88731 33.6403C9.35237 33.4187 8.77902 33.3046 8.2 33.3046C7.03062 33.3046 5.90913 33.7692 5.08225 34.596C4.25537 35.4229 3.79083 36.5444 3.79083 37.7138C3.79083 38.8832 4.25537 40.0047 5.08225 40.8315C5.90913 41.6584 7.03062 42.123 8.2 42.123ZM34.655 83.268C35.2395 83.2951 35.8235 83.2057 36.3731 83.0051C36.9228 82.8045 37.4271 82.4967 37.8567 82.0995C38.2863 81.7022 38.6326 81.2236 38.8756 80.6913C39.1185 80.159 39.2533 79.5838 39.2719 78.999C39.2906 78.4142 39.1928 77.8315 38.9843 77.2848C38.7758 76.7381 38.4607 76.2383 38.0573 75.8145C37.6539 75.3907 37.1703 75.0513 36.6345 74.8161C36.0988 74.5808 35.5217 74.4544 34.9367 74.4442C33.7771 74.424 32.6561 74.8609 31.816 75.6604C30.9759 76.46 30.4843 77.5581 30.4473 78.7173C30.4103 79.8765 30.8309 81.0036 31.6183 81.8552C32.4056 82.7067 33.4965 83.2142 34.655 83.268ZM64.0404 30.3688C65.2105 30.3688 66.3327 29.904 67.1601 29.0766C67.9875 28.2492 68.4523 27.127 68.4523 25.9569C68.4523 24.7868 67.9875 23.6646 67.1601 22.8373C66.3327 22.0099 65.2105 21.545 64.0404 21.545C62.8703 21.545 61.7481 22.0099 60.9207 22.8373C60.0934 23.6646 59.6285 24.7868 59.6285 25.9569C59.6285 27.127 60.0934 28.2492 60.9207 29.0766C61.7481 29.904 62.8703 30.3688 64.0404 30.3688Z" fill="#004E89"/>
</svg>
