<svg width="16" height="16" viewBox="0 0 16 16" fill="none" xmlns="http://www.w3.org/2000/svg">
<path fill-rule="evenodd" clip-rule="evenodd" d="M0.751239 4.90625C0.346239 5.7515 0.488739 6.74075 0.773739 8.7185L0.982239 10.1712C1.34749 12.7122 1.53049 13.982 2.41174 14.741C3.29299 15.5 4.58524 15.5 7.17049 15.5H8.82949C11.4147 15.5 12.707 15.5 13.5882 14.741C14.4695 13.982 14.6525 12.7122 15.0177 10.1712L15.227 8.7185C15.512 6.74075 15.6545 5.7515 15.2487 4.90625C14.8437 4.061 13.9805 3.5465 12.2547 2.519L11.216 1.90025C9.64999 0.9665 8.86549 0.5 7.99999 0.5C7.13449 0.5 6.35074 0.9665 4.78399 1.90025L3.74524 2.519C2.02024 3.5465 1.15699 4.061 0.751239 4.90625ZM5.18749 12.5C5.18749 12.3508 5.24675 12.2077 5.35224 12.1023C5.45773 11.9968 5.6008 11.9375 5.74999 11.9375H10.25C10.3992 11.9375 10.5422 11.9968 10.6477 12.1023C10.7532 12.2077 10.8125 12.3508 10.8125 12.5C10.8125 12.6492 10.7532 12.7923 10.6477 12.8977C10.5422 13.0032 10.3992 13.0625 10.25 13.0625H5.74999C5.6008 13.0625 5.45773 13.0032 5.35224 12.8977C5.24675 12.7923 5.18749 12.6492 5.18749 12.5Z" fill="#004E89"/>
</svg>
