<svg width="16" height="16" viewBox="0 0 16 16" fill="none" xmlns="http://www.w3.org/2000/svg">
<path d="M1.26867 8.64747L1.26863 8.64718C1.12457 7.64751 1.02292 6.93716 1.00344 6.37051C0.984399 5.8163 1.04686 5.4465 1.20206 5.1225C1.3578 4.79812 1.60813 4.51603 2.0541 4.18053C2.5097 3.83779 3.12935 3.46783 4.00111 2.94857L4.00112 2.94856L5.03987 2.32982L5.03997 2.32976C5.83185 1.85781 6.39459 1.52326 6.86642 1.30305C7.32802 1.08761 7.66582 1 7.99999 1C8.33419 1 8.67219 1.08763 9.13387 1.30307C9.60574 1.52326 10.1685 1.8578 10.9599 2.3297L10.9601 2.32982L11.9989 2.94857L11.9989 2.94862C12.8711 3.46788 13.4909 3.83783 13.9464 4.18053C14.3924 4.51603 14.6425 4.79806 14.7978 5.1223L14.798 5.12263C14.9535 5.44661 15.0161 5.81635 14.9972 6.37059C14.9778 6.93719 14.8762 7.64749 14.7321 8.64718L14.7321 8.64722L14.5228 10.1L14.5228 10.1001C14.3383 11.3835 14.2057 12.2991 14.0145 12.9913C13.8272 13.6695 13.5991 14.0717 13.2619 14.3621C12.9244 14.6528 12.49 14.8207 11.7856 14.909C11.0676 14.9991 10.1351 15 8.82949 15H7.17049C5.86492 15 4.9324 14.9991 4.21434 14.909C3.50998 14.8207 3.07556 14.6528 2.73804 14.3621C2.40084 14.0717 2.17274 13.6695 1.98545 12.9913C1.79432 12.2991 1.66164 11.3836 1.47717 10.1002C1.47716 10.1002 1.47716 10.1001 1.47715 10.1001L1.26867 8.64747ZM11.0013 13.2513L10.6477 12.8977L11.0013 13.2513C11.2005 13.052 11.3125 12.7818 11.3125 12.5C11.3125 12.2182 11.2005 11.948 11.0013 11.7487L10.6477 12.1023L11.0013 11.7487C10.802 11.5494 10.5318 11.4375 10.25 11.4375H5.74999C5.4682 11.4375 5.19795 11.5494 4.99869 11.7487C4.79943 11.948 4.68749 12.2182 4.68749 12.5C4.68749 12.7818 4.79943 13.052 4.99869 13.2513C5.19795 13.4506 5.4682 13.5625 5.74999 13.5625H10.25C10.5318 13.5625 10.802 13.4506 11.0013 13.2513Z" stroke="#FFDBCF"/>
</svg>
