<svg width="47" height="36" viewBox="0 0 47 36" fill="none" xmlns="http://www.w3.org/2000/svg">
<path d="M47 34.5C47 34.9062 46.8547 35.2578 46.564 35.5547C46.2733 35.8516 45.929 36 45.5312 36C45.1335 36 44.7892 35.8516 44.4985 35.5547C44.2078 35.2578 44.0625 34.9062 44.0625 34.5V14.7656L27.8604 23.0625C26.6364 23.6875 25.1829 24 23.5 24C21.8171 24 20.3636 23.6875 19.1396 23.0625L1.79004 14.2031C0.59668 13.5781 0 12.8359 0 11.9766C0 11.1172 0.59668 10.3906 1.79004 9.79687L19.1396 0.9375C20.3636 0.3125 21.8171 0 23.5 0C25.1829 0 26.6364 0.3125 27.8604 0.9375L45.21 9.79687C46.2503 10.3281 46.8317 10.9844 46.9541 11.7656C46.9847 11.7969 47 11.8594 47 11.9531V34.5ZM29.3291 26.0625L38.1875 21.5156V28.125C38.1875 29.4687 36.757 30.6172 33.896 31.5703C31.035 32.5234 27.5697 33 23.5 33C19.4303 33 15.965 32.5234 13.104 31.5703C10.243 30.6172 8.8125 29.4687 8.8125 28.125V21.5156L17.6709 26.0625C18.8949 26.6875 20.8379 27 23.5 27C26.1621 27 28.1051 26.6875 29.3291 26.0625Z" fill="#004E89"/>
</svg>
