<svg width="41" height="41" viewBox="0 0 41 41" fill="none" xmlns="http://www.w3.org/2000/svg">
<path d="M9.31818 11.1818V3.72727C9.31818 2.73874 9.71088 1.79069 10.4099 1.09169C11.1089 0.392694 12.0569 0 13.0455 0H27.9545C28.9431 0 29.8911 0.392694 30.5901 1.09169C31.2891 1.79069 31.6818 2.73874 31.6818 3.72727V11.1818H37.2727C38.2613 11.1818 39.2093 11.5745 39.9083 12.2735C40.6073 12.9725 41 13.9206 41 14.9091V37.2727C41 38.2613 40.6073 39.2093 39.9083 39.9083C39.2093 40.6073 38.2613 41 37.2727 41H3.72727C2.73874 41 1.79069 40.6073 1.09169 39.9083C0.392694 39.2093 0 38.2613 0 37.2727V14.9091C0 13.9206 0.392694 12.9725 1.09169 12.2735C1.79069 11.5745 2.73874 11.1818 3.72727 11.1818H9.31818ZM13.0455 3.72727V11.1818H27.9545V3.72727H13.0455Z" fill="#004E89"/>
</svg>
